<svg width="88" height="43" viewBox="0 0 88 43" fill="none" xmlns="http://www.w3.org/2000/svg">
<path d="M0.674471 16.6261C2.09835 17.6753 3.87196 18.2498 5.54565 18.2498C8.09365 18.2498 10.3669 16.8259 10.3669 14.5027C10.3669 10.306 4.49647 10.9305 4.49647 9.35678C4.49647 8.73227 5.24588 8.38255 6.14518 8.38255C7.01949 8.38255 7.84384 8.75726 8.46835 9.2069L9.99216 6.85875C9.19278 6.23424 7.46914 5.63471 5.89537 5.63471C3.49725 5.63471 1.24902 7.08357 1.24902 9.40675C1.24902 13.3037 7.11941 12.6542 7.11941 14.4778C7.11941 15.0773 6.44494 15.502 5.57063 15.502C4.34659 15.502 3.07259 15.0523 2.24824 14.3029L0.674471 16.6261ZM21.732 13.7533C21.1075 14.6526 20.0333 15.2522 18.8093 15.2522C16.9857 15.2522 15.6118 13.8533 15.6118 11.9547C15.6118 10.2061 16.8358 8.63235 18.7343 8.63235C19.9833 8.63235 21.0575 9.23188 21.732 10.1312V13.7533ZM24.9794 5.88451H21.8569V6.85875C20.9076 6.08435 19.6836 5.63471 18.3097 5.63471C15.0122 5.63471 12.3643 8.38255 12.3643 11.9547C12.3643 13.6035 12.9638 15.1023 13.9131 16.2014C14.9873 17.4504 16.6859 18.2498 18.4845 18.2498C19.7086 18.2498 20.8577 17.8751 21.8569 17.0258V18H24.9794V5.88451ZM36.4762 5.73463C36.1265 5.68467 35.8517 5.63471 35.3771 5.63471C33.9033 5.63471 32.5793 6.20925 31.8549 7.10855V5.88451H28.7323V18H31.9798V10.381C32.3795 9.65655 33.5036 8.63235 34.9275 8.63235C35.4021 8.63235 35.8767 8.68231 36.1015 8.75726L36.4762 5.73463ZM46.9807 13.7533C46.3562 14.6526 45.282 15.2522 44.058 15.2522C42.2344 15.2522 40.8605 13.8533 40.8605 11.9547C40.8605 10.2061 42.0845 8.63235 43.9831 8.63235C45.2321 8.63235 46.3062 9.23188 46.9807 10.1312V13.7533ZM50.2282 5.88451H47.1056V6.85875C46.1563 6.08435 44.9323 5.63471 43.5584 5.63471C40.261 5.63471 37.6131 8.38255 37.6131 11.9547C37.6131 13.6035 38.2126 15.1023 39.1618 16.2014C40.236 17.4504 41.9347 18.2498 43.7332 18.2498C44.9573 18.2498 46.1064 17.8751 47.1056 17.0258V18H50.2282V5.88451ZM57.2285 10.1312C57.6782 9.50667 58.8023 8.63235 60.1762 8.63235C60.9256 8.63235 61.5751 8.88216 61.9998 9.30682C62.4494 9.75647 62.7242 10.381 62.7242 11.58V18H65.9717V11.8298C65.9717 9.75647 65.522 8.53243 64.7226 7.58318C63.7234 6.38412 62.1996 5.63471 60.5259 5.63471C59.2769 5.63471 58.1278 6.05937 57.2285 6.75882V0.263922H53.9811V18H57.2285V10.1312ZM0.674471 40.6261C2.09835 41.6753 3.87196 42.2498 5.54565 42.2498C8.09365 42.2498 10.3669 40.8259 10.3669 38.5027C10.3669 34.306 4.49647 34.9305 4.49647 33.3568C4.49647 32.7323 5.24588 32.3825 6.14518 32.3825C7.01949 32.3825 7.84384 32.7573 8.46835 33.2069L9.99216 30.8587C9.19278 30.2342 7.46914 29.6347 5.89537 29.6347C3.49725 29.6347 1.24902 31.0836 1.24902 33.4067C1.24902 37.3037 7.11941 36.6542 7.11941 38.4778C7.11941 39.0773 6.44494 39.502 5.57063 39.502C4.34659 39.502 3.07259 39.0523 2.24824 38.3029L0.674471 40.6261ZM16.611 34.1312C17.0606 33.5067 18.1847 32.6324 19.5587 32.6324C20.3081 32.6324 20.9576 32.8822 21.3822 33.3068C21.8319 33.7565 22.1067 34.381 22.1067 35.58V42H25.3541V35.8298C25.3541 33.7565 24.9045 32.5324 24.1051 31.5832C23.1059 30.3841 21.5821 29.6347 19.9084 29.6347C18.6594 29.6347 17.5103 30.0594 16.611 30.7588V24.2639H13.3635V42H16.611V34.1312ZM37.2227 37.7533C36.5982 38.6526 35.5241 39.2522 34.3 39.2522C32.4765 39.2522 31.1025 37.8533 31.1025 35.9547C31.1025 34.2061 32.3266 32.6324 34.2251 32.6324C35.4741 32.6324 36.5483 33.2319 37.2227 34.1312V37.7533ZM40.4702 29.8845H37.3476V30.8587C36.3984 30.0844 35.1743 29.6347 33.8004 29.6347C30.503 29.6347 27.8551 32.3825 27.8551 35.9547C27.8551 37.6035 28.4546 39.1023 29.4039 40.2014C30.478 41.4504 32.1767 42.2498 33.9753 42.2498C35.1993 42.2498 36.3484 41.8751 37.3476 41.0258V42H40.4702V29.8845ZM47.4705 29.8845H44.2231V42H47.4705V29.8845ZM43.7235 25.5879C43.7235 26.762 44.6727 27.6613 45.8468 27.6613C47.0209 27.6613 47.9702 26.762 47.9702 25.5879C47.9702 24.4138 47.0209 23.5145 45.8468 23.5145C44.6727 23.5145 43.7235 24.4138 43.7235 25.5879ZM54.4719 34.1312C55.1464 33.2319 56.2205 32.6324 57.4695 32.6324C59.368 32.6324 60.5921 34.2061 60.5921 35.9547C60.5921 37.8533 59.2182 39.2522 57.3946 39.2522C56.1706 39.2522 55.0964 38.6526 54.4719 37.7533V34.1312ZM54.347 42V41.0258C55.3462 41.8751 56.4953 42.2498 57.7193 42.2498C59.5179 42.2498 61.2166 41.4504 62.2907 40.2014C63.24 39.1023 63.8395 37.6035 63.8395 35.9547C63.8395 32.3825 61.1916 29.6347 57.8942 29.6347C56.5702 29.6347 55.4211 30.0094 54.4719 30.7588V24.2639H51.2244V42H54.347ZM74.8368 29.8845V37.7533C74.3871 38.3279 73.3879 39.2522 72.014 39.2522C71.3895 39.2522 70.69 39.0523 70.1904 38.5027C69.8157 38.0781 69.5909 37.5285 69.5909 36.4294V29.8845H66.3434V36.3045C66.3434 38.1031 66.7931 39.3521 67.5675 40.3013C68.5167 41.4754 70.0155 42.2498 71.6892 42.2498C72.8633 42.2498 74.0124 41.8751 74.9617 41.0258V42H78.0842V29.8845H74.8368ZM82.7144 40.0765C82.7144 41.3005 83.6636 42.2498 84.8877 42.2498C86.1117 42.2498 87.0859 41.3005 87.0859 40.0765C87.0859 38.8525 86.1117 37.8782 84.8877 37.8782C83.6636 37.8782 82.7144 38.8525 82.7144 40.0765Z" fill="black"/>
</svg>
